<?xml version="1.0" standalone="no"?><!DOCTYPE svg PUBLIC "-//W3C//DTD SVG 1.1//EN" "http://www.w3.org/Graphics/SVG/1.1/DTD/svg11.dtd"><svg t="1768986711059" class="icon" viewBox="0 0 1024 1024" version="1.1" xmlns="http://www.w3.org/2000/svg" p-id="1115" xmlns:xlink="http://www.w3.org/1999/xlink" width="48" height="48"><path d="M457.24103111 987.72986943L76.43965314 831.66033541a24.18197491 24.18197491 0 0 1-15.01664396-22.36962133V311.77376553c0-17.19146825 17.43743052-28.89409422 33.34730588-22.36962134L475.58463842 445.46073283a24.18197491 24.18197491 0 0 1 15.01664395 22.36962134V965.34730272c-0.01294539 17.20441363-17.4503759 28.89409422-33.36025126 22.38256671zM948.19467061 831.66033541L567.38034725 987.72986943c-15.90987536 6.52447289-33.34730587-5.17815309-33.34730586-22.36962133V467.83035417c0-9.8126001 5.92898528-18.6542965 15.01664394-22.36962134l380.80137798-156.06953401c15.90987536-6.52447289 33.34730587 5.17815309 33.34730587 22.36962133v497.51694854c0 9.82554548-5.92898528 18.66724187-15.00369857 22.38256672z" fill="#8771FA" p-id="1116"></path><path d="M505.11305639 421.86130015l-390.30328889-170.85316109c-19.31451102-8.45333491-19.31451102-35.84576475 0-44.29909965l390.30328889-170.8531611a24.18068037 24.18068037 0 0 1 19.39218331 0l390.30328889 170.8531611c19.31451102 8.45333491 19.31451102 35.84576475 0 44.29909965l-390.30328889 170.85316109a24.18068037 24.18068037 0 0 1-19.39218331 0z" fill="#DDBFFB" p-id="1117"></path><path d="M633.35001758 606.26827694c-12.07804208 0-23.43114272-7.44359506-27.79373669-19.45691022-5.59240533-15.36616928 2.33016889-32.32462064 17.67044741-37.91702597L853.7581037 464.99531536c15.41795082-5.52767842 32.32462064 2.33016889 37.91702599 17.6704474 5.59240533 15.36616928-2.33016889 32.32462064-17.67044742 37.91702599l-230.53137541 83.89902538c-3.35285413 1.20392059-6.77043517 1.78646282-10.12328928 1.78646281zM391.2713608 606.26827694c-3.35285413 0-6.77043517-0.58254222-10.1232893-1.77351744l-230.5313754-83.89902537c-15.34027852-5.59240533-23.26285275-22.55085669-17.67044741-37.91702598 5.59240533-15.34027852 22.49907517-23.19812583 37.91702598-17.6704474l230.53137541 83.89902538c15.34027852 5.59240533 23.26285275 22.55085669 17.6704474 37.91702597-4.36259397 12.00036978-15.70274924 19.44396483-27.79373668 19.44396484z" fill="#FFFFFF" p-id="1118"></path></svg>